<svg id="Capa_1" data-name="Capa 1" xmlns="http://www.w3.org/2000/svg" viewBox="0 0 512 512"><defs><style>.cls-1{fill:#113b8f;}.cls-2{fill:#fff;}</style></defs><rect class="cls-1" width="512" height="512"/><path class="cls-2" d="M315.98511,335.92007a27.50284,27.50284,0,0,1-23.48971-13.27679l-36.48283-60.48319-36.42608,60.48319A27.59586,27.59586,0,0,1,196.04,335.97681a26.09584,26.09584,0,0,1-7.54622-1.078l-77.73166-22.24147V413.65174a18.09816,18.09816,0,0,0,13.7307,17.58891l122.66851,30.6955a36.88193,36.88193,0,0,0,17.58892,0l122.782-30.6955A18.19592,18.19592,0,0,0,401.263,413.65174V312.65731L323.53132,334.842a26.09572,26.09572,0,0,1-7.54621,1.078m120.626-63.66053-29.22033-58.32713a9.26691,9.26691,0,0,0-9.47533-5.04972L256.01257,226.98226l52.02916,86.29917a9.32551,9.32551,0,0,0,10.49661,4.14191L430.8237,285.36612a9.34481,9.34481,0,0,0,5.78733-13.10658M104.6344,213.93241,75.41411,272.25954a9.24979,9.24979,0,0,0,5.73058,13.04984L193.43007,317.3666a9.32553,9.32553,0,0,0,10.49661-4.14191l52.08589-86.24243L114.053,208.88269a9.27149,9.27149,0,0,0-9.41858,5.04972"/><path class="cls-2" d="M301.73427,118.02246a5.71679,5.71679,0,0,0-5.71679,5.71678v40.01748a5.71679,5.71679,0,0,1-5.71678,5.71679h-80.035a5.71679,5.71679,0,0,1-5.71678-5.71679V118.02246a5.71678,5.71678,0,0,1,5.71678-5.71679H221.6993a5.71676,5.71676,0,0,0,5.71678-3.88741l3.08707-9.37552a5.71678,5.71678,0,0,1,5.43094-3.88741h31.49948a5.71679,5.71679,0,0,0,0-11.43357H235.64825a17.15034,17.15034,0,0,0-16.23566,11.71941l-1.82937,5.71678h-7.31749a17.15035,17.15035,0,0,0-17.15035,17.15035v45.73426a17.15035,17.15035,0,0,0,17.15035,17.15035h80.035a17.15035,17.15035,0,0,0,17.15035-17.15035V124.02508a5.71678,5.71678,0,0,0-5.42379-5.99548q-.14639-.00732-.293-.00715m-51.451-5.71678a22.86714,22.86714,0,1,0,22.86713,22.86713,22.86713,22.86713,0,0,0-22.86713-22.86713m0,34.3007a11.43357,11.43357,0,1,1,11.43356-11.43357,11.43357,11.43357,0,0,1-11.43356,11.43357m62.88461-62.88462h-5.71678V78.005a5.71678,5.71678,0,0,0-11.43357,0v5.71678H290.3007a5.71679,5.71679,0,0,0,0,11.43357h5.71678v5.71678a5.71679,5.71679,0,1,0,11.43357,0V95.15532h5.71678a5.71679,5.71679,0,1,0,0-11.43357"/></svg>