<svg id="Capa_1" data-name="Capa 1" xmlns="http://www.w3.org/2000/svg" viewBox="0 0 512 512"><defs><style>.cls-1{fill:#eae121;}.cls-2,.cls-3{fill:#113b8f;}.cls-3{opacity:0.5;}</style></defs><rect class="cls-1" width="512" height="512"/><path class="cls-2" d="M395.57088,258.79615l22.92692,22.92693L311.65834,388.71538l-68.93361-68.78076,22.92692-22.92693,46.00669,45.85385Z"/><path class="cls-3" d="M334.43242,159.44615V205.3H181.58626V159.44615H151.017V373.43077H253.11827l-53.649-53.49615,66.18239-66.18239,46.00669,45.85385,53.34331-53.49616V159.44615Z"/><path class="cls-2" d="M151.017,373.43077V159.44615h30.56923V205.3H334.43242V159.44615h30.56923v86.66377l30.56923-30.56923V159.44615a30.6591,30.6591,0,0,0-30.56923-30.56923H301.112a45.672,45.672,0,0,0-86.20522,0H151.017a30.65911,30.65911,0,0,0-30.56923,30.56923V373.43077A30.6591,30.6591,0,0,0,151.017,404H283.6875l-30.56923-30.56923ZM258.00934,128.87692a15.28462,15.28462,0,1,1-15.28461,15.28462,15.32956,15.32956,0,0,1,15.28461-15.28462"/></svg>